<svg width="24" height="24" viewBox="0 0 24 24" fill="none" xmlns="http://www.w3.org/2000/svg">
<path d="M14.4001 5.39998C14.4001 4.92259 14.2105 4.46475 13.8729 4.12718C13.5353 3.78962 13.0775 3.59998 12.6001 3.59998H11.4001C10.9227 3.59998 10.4649 3.78962 10.1273 4.12718C9.78974 4.46475 9.6001 4.92259 9.6001 5.39998V20.4H14.4001V5.39998ZM15.6001 7.19998V20.4H19.8001C19.9592 20.4 20.1118 20.3368 20.2244 20.2242C20.3369 20.1117 20.4001 19.9591 20.4001 19.8V9.59998C20.4001 8.96346 20.1472 8.35301 19.6972 7.90292C19.2471 7.45283 18.6366 7.19998 18.0001 7.19998H15.6001ZM6.0001 10.8H8.4001V20.4H4.2001C4.04097 20.4 3.88836 20.3368 3.77583 20.2242C3.66331 20.1117 3.6001 19.9591 3.6001 19.8V13.2C3.6001 12.5635 3.85295 11.953 4.30304 11.5029C4.75313 11.0528 5.36358 10.8 6.0001 10.8Z" fill="#DDDDDD"/>
</svg>
