<svg width="127" height="127" viewBox="0 0 127 127" fill="none" xmlns="http://www.w3.org/2000/svg">
<path d="M95.0371 57.0363L93.6721 56.8236C93.3992 56.7811 93.2125 56.5254 93.255 56.2525L94.5759 47.7778L94.5859 47.6053C94.6449 47.2454 94.5706 46.8763 94.377 46.5673L82.1124 27.1953L82.1031 27.1826C82.028 27.0727 81.9399 26.9722 81.8408 26.8833L81.7515 26.8076C81.6644 26.741 81.5709 26.6832 81.4723 26.6349L81.3944 26.5947C81.2852 26.5475 81.1705 26.5145 81.053 26.4965L44.3746 20.7799C42.6993 20.5188 41.1269 21.6696 40.8663 23.3422L37.1014 47.4978C37.0589 47.7706 36.8032 47.9573 36.5304 47.9148L35.1654 47.7021C32.769 47.3286 30.5252 48.9673 30.1517 51.3637L26.6355 73.924C26.2624 76.3177 27.9034 78.5647 30.2971 78.9378L32.1561 79.2275L29.7493 94.6699C29.4886 96.3424 30.6362 97.9171 32.3115 98.1782L82.395 105.984C84.0676 106.245 85.6427 105.094 85.9033 103.422L88.3102 87.9795L90.1692 88.2693C92.5628 88.6424 94.8094 87.0041 95.1829 84.6077L98.6991 62.0473C99.0722 59.6536 97.4335 57.4098 95.0371 57.0363ZM43.8245 24.3093C43.8671 24.0364 44.1227 23.8497 44.3956 23.8922L78.5669 29.2181C78.8397 29.2606 79.0264 29.5163 78.9839 29.7891L76.6404 44.8252C76.5096 45.6642 77.0841 46.4474 77.9231 46.5782L84.627 47.6231L90.8369 48.5909C91.1098 48.6334 91.2965 48.8891 91.254 49.162L90.2229 55.7772C90.1804 56.05 89.9248 56.2367 89.6519 56.1942L40.5537 48.5419C40.2809 48.4994 40.0942 48.2437 40.1367 47.9708L43.8245 24.3093ZM60.128 68.9436C56.648 67.0531 54.5339 64.6341 55.036 61.4124C55.6253 57.6313 59.2626 55.2689 64.4585 56.0788C66.992 56.4736 68.722 57.2488 69.9411 58.0763L68.1972 61.9134C66.872 60.9921 65.353 60.3874 63.7572 60.1457C61.5856 59.8072 60.3742 60.6604 60.1998 61.7791C59.9793 63.1939 61.097 64.0056 63.8232 65.5427C67.513 67.6007 69.0024 69.9195 68.5152 73.0453C67.9357 76.7633 64.617 79.4786 58.5327 78.5303C55.9992 78.1355 53.609 77.0552 52.4664 76.1694L54.127 72.2182C55.7111 73.3668 57.538 74.1359 59.4667 74.466C61.7698 74.8249 63.1364 74.0577 63.3616 72.6128C63.577 71.2309 62.6495 70.2803 60.128 68.9436ZM34.2445 63.3592C35.4185 55.8272 41.4626 52.4919 48.1693 53.5371C50.7686 53.9423 52.6584 54.7732 53.4797 55.3422L51.8067 59.1566C50.562 58.3897 49.1732 57.8865 47.7261 57.678C43.7805 57.0631 40.3165 58.9806 39.5477 63.9133C38.8609 68.3195 41.0545 71.5261 45.4937 72.218C47.0401 72.459 48.731 72.422 49.8153 72.1501L49.9269 76.2089C48.9723 76.4954 46.7841 76.6964 44.1217 76.2815C36.4577 75.0898 33.2604 69.6738 34.2445 63.3592ZM83.0724 101.638C83.0299 101.911 82.7742 102.097 82.5014 102.055L33.406 94.4029C33.1331 94.3603 32.9464 94.1047 32.9889 93.8318L35.114 80.1974C35.1565 79.9245 35.4121 79.7378 35.685 79.7803L84.2864 87.3552C84.8321 87.4403 85.2055 87.9516 85.1205 88.4973L83.0724 101.638ZM82.0053 81.8517L76.1513 80.9393L72.5044 57.667L77.9965 58.523L79.2307 68.3176C79.5697 71.0975 79.8709 73.7058 79.9671 76.5489L80.0658 76.5643C81.0374 74.017 82.113 71.5106 83.2897 69.0513L87.5954 60.0218L92.9202 60.8517L82.0053 81.8517Z" fill="#FC8320"/>
</svg>
