<svg width="89" height="66" viewBox="0 0 89 66" fill="none" xmlns="http://www.w3.org/2000/svg">
<path fill-rule="evenodd" clip-rule="evenodd" d="M79.7465 17.7432H22.0053C19.4602 17.7432 17.1998 19.3734 16.3958 21.789L5.9144 53.2296V11.8288H76.8872C76.8872 8.56294 74.2387 5.9144 70.9728 5.9144H38.8096C37.4263 5.91399 36.0869 5.42872 35.0243 4.543L31.2169 1.37325C30.1542 0.48609 28.8142 0 27.4317 0H5.9144C2.64854 0 0 2.64854 0 5.9144V53.2296C0 56.4955 2.64854 59.144 5.9144 59.144H70.9728L85.1822 25.9882C85.4964 25.2526 85.6609 24.4579 85.6609 23.6576C85.6609 20.3917 83.0123 17.7432 79.7465 17.7432Z" fill="#FC8320"/>
<path fill-rule="evenodd" clip-rule="evenodd" d="M53.2295 11.8274V17.7418H35.4863V23.6562H41.4007V59.1426C41.4007 62.4011 44.0585 65.057 47.3151 65.057H76.8871C80.1456 65.057 82.8015 62.4011 82.8015 59.1426V23.6562H88.7159V17.7418H70.9727V11.8274H53.2295ZM53.2295 29.5706V53.2282H59.1439V29.5706H53.2295ZM65.0583 29.5706V53.2282H70.9727V29.5706H65.0583Z" fill="#FFD365"/>
</svg>
